<?xml version="1.0" encoding="UTF-8" standalone="no" ?>
<!DOCTYPE svg PUBLIC "-//W3C//DTD SVG 1.1//EN" "http://www.w3.org/Graphics/SVG/1.1/DTD/svg11.dtd">
<svg xmlns="http://www.w3.org/2000/svg" xmlns:xlink="http://www.w3.org/1999/xlink" version="1.1" width="1080" height="1080" viewBox="0 0 1080 1080" xml:space="preserve">
<desc>Created with Fabric.js 5.2.4</desc>
<defs>
</defs>
<g transform="matrix(1 0 0 1 540 540)" id="ec318775-623f-46ca-9e1f-787b9b61f8da"  >
<rect style="stroke: none; stroke-width: 1; stroke-dasharray: none; stroke-linecap: butt; stroke-dashoffset: 0; stroke-linejoin: miter; stroke-miterlimit: 4; fill: rgb(255,255,255); fill-rule: nonzero; opacity: 1; visibility: hidden;" vector-effect="non-scaling-stroke"  x="-540" y="-540" rx="0" ry="0" width="1080" height="1080" />
</g>
<g transform="matrix(1 0 0 1 540 540)" id="6ce5f4e2-1bae-41a1-84d3-a870f0a888b3"  >
</g>
<g transform="matrix(1.86 0 0 1.86 539.39 540.54)"  >
<path style="stroke: none; stroke-width: 1; stroke-dasharray: none; stroke-linecap: butt; stroke-dashoffset: 0; stroke-linejoin: miter; stroke-miterlimit: 4; fill: rgb(0,0,0); fill-rule: nonzero; opacity: 1;"  transform=" translate(-300, -265)" d="M 135.72 44.03 C 202.216 93.951 273.74 195.17 300 249.49 C 326.262 195.174 397.782 93.95000000000002 464.28 44.03 C 512.26 8.009 590 -19.862000000000002 590 68.825 C 590 86.537 579.845 217.615 573.889 238.89499999999998 C 553.186 312.87899999999996 477.745 331.74899999999997 410.639 320.328 C 527.939 340.292 557.779 406.41999999999996 493.336 472.548 C 370.946 598.138 317.42600000000004 441.037 303.706 400.782 C 301.192 393.40229999999997 300.0156 389.95 299.99830000000003 392.88559999999995 C 299.9809 389.94989999999996 298.80460000000005 393.40228999999994 296.29060000000004 400.7819999999999 C 282.57660000000004 441.0369999999999 229.05760000000004 598.1419999999999 106.66060000000004 472.54799999999994 C 42.21660000000004 406.41999999999996 72.05560000000006 340.28799999999995 189.35760000000005 320.328 C 122.24960000000004 331.74899999999997 46.807600000000036 312.8789 26.107600000000048 238.89499999999998 C 20.15140000000005 217.61299999999997 9.996600000000047 86.53499999999997 9.996600000000047 68.82499999999999 C 9.996600000000047 -19.86200000000001 87.73860000000005 8.008999999999986 135.71660000000006 44.02999999999999 z" stroke-linecap="round" />
</g>
</svg>