<svg width="512" height="512" xmlns="http://www.w3.org/2000/svg">

 <g>
  <title>Layer 1</title>
  <path stroke="null" id="svg_1" d="m110.76334,54.2702c58.58532,45.91309 121.60048,139.00572 144.73646,188.96464c23.13775,-49.95524 86.14938,-143.05247 144.73646,-188.96464c42.27207,-33.12905 110.76375,-58.76243 110.76375,22.80433c0,16.28999 -8.94691,136.84439 -14.19436,156.41593c-18.24007,68.04419 -84.70625,85.39922 -143.829,74.89515c103.34543,18.36119 129.63552,79.1801 72.85897,139.99902c-107.8299,115.50701 -154.9829,-28.98114 -167.07071,-66.00427c-2.21492,-6.78722 -3.25137,-9.96235 -3.26661,-7.26244c-0.01533,-2.70001 -1.05169,0.47521 -3.26661,7.26244c-12.08252,37.02313 -59.23464,181.51495 -167.07071,66.00427c-56.77743,-60.81891 -30.48822,-121.6415 72.85897,-139.99902c-59.12451,10.50406 -125.59157,-6.85105 -143.829,-74.89515c-5.24762,-19.57337 -14.19436,-140.12778 -14.19436,-156.41593c0,-81.56676 68.49344,-55.93339 110.76375,-22.80433l0.003,0z"/>
 </g>
</svg>